# xmcd
#
# Track frame offsets: 
#        150
#        14700
#        28395
#        41667
#        55452
#        68370
#        83055
#        96905
#        109082
#        121000
#        134190
#        147997
#        161027
#        171565
#        184277
#        196492
#        208925
#        221592
#        234087
#        246117
#
# Disc length: 3542 seconds
#
# Revision: 4
# Processed by: cddbd v1.5.2PL0 Copyright (c) Steve Scherf et al.
# Submitted via: ExactAudioCopyFreeDBPlugin 1.0
#
DISCID=330dd414
DTITLE=Various Artist - Legends of The Blues: Volume 1
DYEAR=1990
DGENRE=Blues
TTITLE0=Bessie Smith - St. Louis Blues
TTITLE1=Blind Lemon Jefferson - Match Box Blues
TTITLE2=Mississippi John Hurt - Ain't No Tellin'
TTITLE3=Blind Willie Johnson - Lord, I Just Can't Keep From Cryin'
TTITLE4=Bo Carter - Pigmeat Is What I Crave
TTITLE5=Blind Willie McTell - Southern Can is Mine
TTITLE6=Lonnie Johnson - Low Down St. Louis Blues
TTITLE7=Charley Patton - Revenue Man Blues
TTITLE8=Leroy Carr - Stormy Night Blues
TTITLE9=Josh White - I Believe I'll Make A Change
TTITLE10=Leadbelly - Fort Worth And Dallas Blues
TTITLE11=Peetie Wheatstraw - Sweet Home Blues
TTITLE12=Robert Johnson - Stop Breakin' Down Blues
TTITLE13=Blind Boy Fuller - Truckin' My Blues Away, #2
TTITLE14=Big Bill Broonzy - Spreadin' Snakes Blues
TTITLE15=Memphis Minnie - Nothing In Ramblin'
TTITLE16=Bukka White - Fixin' To Die Blues
TTITLE17=Muddy Waters - Hard Day Blues
TTITLE18=Big Joe Williams - Don't You Leave Me Here
TTITLE19=Son House - Death Letter
EXTD=YEAR: 1990 ID3G:   0
EXTT0=Bessie Smith\n
EXTT1=Blind Lemon Jefferson\n
EXTT2=Mississippi John Hurt\n
EXTT3=Blind Willie Johnson\n
EXTT4=Bo Carter\n
EXTT5=Blind Willie McTell\n
EXTT6=Lonnie Johnson\n
EXTT7=Charley Patton\n
EXTT8=Leroy Carr\n
EXTT9=Josh White\n
EXTT10=Leadbelly\n
EXTT11=Peetie Wheatstraw\n
EXTT12=Robert Johnson\n
EXTT13=Blinf Boy Fuller\n
EXTT14=Big Bill Bronzy\n
EXTT15=Memphis Minnie\n
EXTT16=Bukka White\n
EXTT17=Muddy Waters\n
EXTT18=Big Joe Williams\n
EXTT19=Son House\n
PLAYORDER=
